<?xml version="1.0" encoding="utf-8"?>
<!-- Generator: Adobe Illustrator 23.1.1, SVG Export Plug-In . SVG Version: 6.00 Build 0)  -->
<svg version="1.1" id="Personalization" xmlns="http://www.w3.org/2000/svg" xmlns:xlink="http://www.w3.org/1999/xlink" x="0px"
	 y="0px" viewBox="0 0 54 54" style="enable-background:new 0 0 54 54;" xml:space="preserve">
<g fill="#008ee2">
	<path d="M38.6,27.4c-0.1-0.1-0.2-0.3-0.3-0.5c-1.1-1.5-1.7-2.5-1.7-2.7c0-0.1,0-0.3,0.1-0.4c0.1-0.6,0.3-1.7,0.1-3
		c-0.2-0.8-2-8-10.8-7.8c-8.4,0.2-11.6,6-11.6,9.7c0,2.7,1,4.5,1.8,5.9c0.3,0.6,0.6,1.1,0.8,1.6c0.7,2,1.3,4.8-0.2,8l0.8,0.4
		c1.7-3.5,1-6.5,0.3-8.7c-0.2-0.6-0.5-1.2-0.9-1.8c-0.8-1.4-1.6-3-1.6-5.5c0-3.3,2.9-8.6,10.7-8.8c8.1-0.2,9.7,6.4,9.8,7.1
		c0.3,1.2,0.1,2.1-0.1,2.7c-0.1,0.3-0.1,0.5-0.1,0.7c0,0.6,0.7,1.6,1.9,3.2c0.1,0.2,0.3,0.4,0.3,0.4c0.1,0.1,0.1,0.3,0.1,0.4
		c0,0.1-0.2,0.2-0.3,0.3c-0.2,0.1-0.4,0.2-0.6,0.3c-0.3,0.2-0.5,0.3-0.6,0.6c-0.1,0.2,0,0.5,0.4,1.2h-2.6v0.9h2.6
		c0.3,0,0.6-0.2,0.8-0.4c0.2-0.3,0.2-0.6,0-0.9c-0.1-0.2-0.2-0.4-0.2-0.5c0,0,0,0,0.1,0c0.2-0.1,0.4-0.2,0.6-0.3
		c0.4-0.2,0.6-0.5,0.7-0.9C38.9,28.2,38.8,27.8,38.6,27.4z"/>
	<path d="M35.2,33.1c-0.2,0.2-0.4,0.5-0.4,1c0,0.1,0,0.1,0,0.2c0,0.5,0,0.9-0.6,1.1c-0.8,0.3-3.2-0.2-4.5-0.7
		c-0.2-0.1-0.6-1.3-0.9-2.1l-0.2-0.6l-0.9,0.3l0.2,0.5c0.5,1.5,0.9,2.4,1.5,2.6c0.1,0,0.3,0.1,0.5,0.2c-0.5,0.7-0.9,1.7-1.1,2.6
		l0.9,0.2c0.3-1.3,0.9-2.3,1.2-2.6c0.8,0.2,1.8,0.4,2.6,0.4c0.4,0,0.7,0,1-0.1c1.3-0.5,1.2-1.6,1.2-2c0,0,0-0.1,0-0.1
		c0-0.2,0.1-0.3,0.2-0.5c0.2-0.3,0.5-0.7,0.4-1.4l-0.9,0.1C35.5,32.7,35.4,32.8,35.2,33.1z"/>
	<path d="M22.5,20c0-1.2-1-2.1-2.1-2.1s-2.1,1-2.1,2.1c0,1.2,1,2.1,2.1,2.1c0.4,0,0.8-0.1,1.1-0.3l1.7,1.7v3.1h0.9v-3.5l-2-2
		C22.3,20.8,22.5,20.4,22.5,20z M20.3,21.2c-0.7,0-1.2-0.5-1.2-1.2c0-0.7,0.5-1.2,1.2-1.2s1.2,0.5,1.2,1.2
		C21.6,20.7,21,21.2,20.3,21.2z"/>
	<path d="M25.9,15.1c-1.2,0-2.1,1-2.1,2.1c0,1,0.7,1.9,1.7,2.1V35h0.9V19.3c1-0.2,1.7-1.1,1.7-2.1C28,16.1,27.1,15.1,25.9,15.1z
		 M25.9,18.5c-0.7,0-1.2-0.5-1.2-1.2s0.5-1.2,1.2-1.2s1.2,0.5,1.2,1.2S26.6,18.5,25.9,18.5z"/>
	<path d="M27.7,26.7h0.9v-3.1l1.7-1.7c0.3,0.2,0.7,0.3,1.1,0.3c1.2,0,2.1-1,2.1-2.1c0-1.2-1-2.1-2.1-2.1c-1.2,0-2.1,1-2.1,2.1
		c0,0.4,0.1,0.8,0.3,1.1l-2,2V26.7z M31.4,18.8c0.7,0,1.2,0.5,1.2,1.2c0,0.7-0.5,1.2-1.2,1.2s-1.2-0.5-1.2-1.2
		C30.2,19.4,30.8,18.8,31.4,18.8z"/>
	<path d="M21.9,25.6c0-1.2-1-2.1-2.1-2.1c-1.2,0-2.1,1-2.1,2.1s1,2.1,2.1,2.1c0.4,0,0.8-0.1,1.1-0.3l1.7,1.7v9.2h0.9v-9.6l-2-2
		C21.8,26.4,21.9,26,21.9,25.6z M19.8,26.8c-0.7,0-1.2-0.5-1.2-1.2s0.5-1.2,1.2-1.2s1.2,0.5,1.2,1.2S20.5,26.8,19.8,26.8z"/>
	<path d="M28.6,29.7l2.3-2.3c0.3,0.2,0.7,0.3,1.1,0.3c1.2,0,2.1-1,2.1-2.1s-1-2.1-2.1-2.1c-1.2,0-2.1,1-2.1,2.1
		c0,0.4,0.1,0.8,0.3,1.1l-2.6,2.6v1.3h0.9V29.7z M32,24.4c0.7,0,1.2,0.5,1.2,1.2s-0.5,1.2-1.2,1.2c-0.7,0-1.2-0.5-1.2-1.2
		S31.3,24.4,32,24.4z"/>
</g>
</svg>
