<?xml version="1.0" encoding="utf-8"?>
<!-- Generator: Adobe Illustrator 23.1.1, SVG Export Plug-In . SVG Version: 6.00 Build 0)  -->
<svg version="1.1" id="Digital_Marketing" xmlns="http://www.w3.org/2000/svg" xmlns:xlink="http://www.w3.org/1999/xlink" x="0px"
	 y="0px" viewBox="0 0 54 54" style="enable-background:new 0 0 54 54;" xml:space="preserve">
<g fill="#008ee2">
	<path d="M39.6,26.4l-1.6-1.6l-0.6,0.6l0.9,0.9h-4.8c-0.1-1.6-0.7-3.1-1.7-4.2l4.2-4.2v1.5h0.8v-2.5c0-0.2-0.2-0.4-0.4-0.4H34v0.8
		h1.5l-4.2,4.2c-1.1-1-2.6-1.6-4.2-1.7v-4.8l0.9,0.9l0.6-0.6l-1.6-1.6c-0.2-0.2-0.4-0.2-0.6,0l-1.6,1.6l0.6,0.6l0.9-0.9v4.8
		c-1.6,0.1-3.1,0.7-4.2,1.7l-4.2-4.2h1.5v-0.8h-2.5c-0.2,0-0.4,0.2-0.4,0.4v2.5h0.8v-1.5l4.2,4.2c-1,1.1-1.6,2.6-1.7,4.2h-4.8
		l0.9-0.9l-0.6-0.6l-1.6,1.6c-0.2,0.2-0.2,0.4,0,0.6l1.6,1.6l0.6-0.6l-0.9-0.9h4.8c0.1,1.6,0.7,3.1,1.7,4.2l-4.2,4.2V34h-0.8v2.5
		c0,0.2,0.2,0.4,0.4,0.4h2.5v-0.8h-1.5l4.2-4.2c1.1,1,2.6,1.6,4.2,1.7v4.8l-0.9-0.9L24.7,38l1.6,1.6c0.1,0.1,0.2,0.1,0.3,0.1
		s0.2,0,0.3-0.1l1.6-1.6L28,37.4L27,38.3v-4.8c1.6-0.1,3.1-0.7,4.2-1.7l4.2,4.2H34v0.8h2.5c0.2,0,0.4-0.2,0.4-0.4V34H36v1.5
		l-4.2-4.2c1-1.1,1.6-2.6,1.7-4.2h4.8L37.4,28l0.6,0.6l1.6-1.6C39.7,26.8,39.7,26.5,39.6,26.4z M26.6,32.8c-3.4,0-6.1-2.8-6.1-6.1
		s2.8-6.1,6.1-6.1s6.1,2.8,6.1,6.1S30,32.8,26.6,32.8z"/>
	<path d="M26.6,23.8c-1.6,0-2.9,1.3-2.9,2.9s1.3,2.9,2.9,2.9s2.9-1.3,2.9-2.9S28.2,23.8,26.6,23.8z M26.6,28.7c-1.1,0-2-0.9-2-2
		c0-1.1,0.9-2,2-2c1.1,0,2,0.9,2,2C28.7,27.8,27.7,28.7,26.6,28.7z"/>
</g>
</svg>
