<?xml version="1.0" encoding="utf-8"?>
<!-- Generator: Adobe Illustrator 23.1.1, SVG Export Plug-In . SVG Version: 6.00 Build 0)  -->
<svg version="1.1" id="Containers" xmlns="http://www.w3.org/2000/svg" xmlns:xlink="http://www.w3.org/1999/xlink" x="0px" y="0px"
	 viewBox="0 0 54 54" style="enable-background:new 0 0 54 54;" xml:space="preserve">
<g fill="#008ee2">
	<path class="st0" d="M26.6,13.3L15,20.1v13.4L26.5,40l11.7-6.6V20L26.6,13.3z M37.3,32.9l-10.6,5.9v-5.4822l-0.4026,0.2238
		L25.9,33.3276V38.7l-10-5.7V21.1l4.6416,2.715v-0.4826l0.3644-0.2382L16.3,20.4l10.3-6.1l10.4,6l-4.925,2.8143l0.2748,0.1863
		v0.4397L37.3,21V32.9z"/>
	<path class="st0" d="M26.5,20.6l-4.6566,2.7559l-0.6506,0.395v0.4449L21.2,24.2v5.7l4.1562,2.3876l0.9305,0.5202l1.1691-0.6462
		L31.7,29.7v-5.6l0.0102-0.0056v-0.3673l-1.1468-0.7222L26.5,20.6z M25.9,31.6L22,29.4v-4.8l3.9,2.3V31.6z M22.4,23.9l4-2.4l4,2.4
		l-0.6,0.4l-3.5,1.9L22.4,23.9z M31,29.3l-4.2,2.4v-4.8l4.2-2.3V29.3z"/>
</g>
</svg>
