<?xml version="1.0" encoding="utf-8"?>
<!-- Generator: Adobe Illustrator 23.1.1, SVG Export Plug-In . SVG Version: 6.00 Build 0)  -->
<svg version="1.1" id="Cloud" xmlns="http://www.w3.org/2000/svg" xmlns:xlink="http://www.w3.org/1999/xlink" x="0px" y="0px"
	 viewBox="0 0 54 54" style="enable-background:new 0 0 54 54;" xml:space="preserve">
<path fill="#008ee2" d="M38.6,22.7c-0.1,0-0.2,0-0.3,0c0-0.4,0.1-0.7,0.1-1.1c0-4.7-3.8-8.5-8.5-8.5c-4.2,0-7.7,3.1-8.4,7.1
	c-0.8-0.5-1.8-0.8-2.8-0.8c-2.9,0-5.3,2.4-5.3,5.3c0,0.4,0,0.7,0.1,1.1c-3.5-0.2-6.5,2.6-6.5,6.1c0,3.4,2.7,6.1,6.1,6.1h25.5
	c4.3,0,7.7-3.5,7.7-7.7C46.3,26.2,42.8,22.7,38.6,22.7z M38.6,37H13c-2.8,0-5-2.3-5-5c0-2.8,2.3-5,5-5c0.3,0,0.7,0,1,0.1
	c0.2,0,0.4,0,0.5-0.2c0.1-0.1,0.2-0.4,0.1-0.5c-0.2-0.5-0.3-1-0.3-1.5c0-2.3,1.9-4.2,4.3-4.2c1.1,0,2.1,0.4,2.8,1.1
	c0.2,0.1,0.4,0.2,0.6,0.1c0.2-0.1,0.3-0.3,0.3-0.5c0.2-4,3.4-7.1,7.4-7.1c4.1,0,7.4,3.3,7.4,7.4c0,0.5-0.1,1-0.2,1.6
	c0,0.2,0,0.3,0.1,0.5c0.1,0.1,0.3,0.2,0.5,0.2c0.3,0,0.6-0.1,0.9-0.1c3.7,0,6.6,3,6.6,6.6S42.2,37,38.6,37z"/>
</svg>
